<mxfile host="app.diagrams.net" modified="2023-09-30T13:36:11.940Z" agent="Mozilla/5.0 (Windows NT 10.0; Win64; x64) AppleWebKit/537.36 (KHTML, like Gecko) Chrome/117.0.0.0 Safari/537.36" etag="78oO0kKNayVwdwKu9STU" version="22.0.0" type="device">
  <diagram name="Page-1" id="2YBvvXClWsGukQMizWep">
    <mxGraphModel dx="3450" dy="1217" grid="1" gridSize="10" guides="1" tooltips="1" connect="1" arrows="1" fold="1" page="1" pageScale="1" pageWidth="850" pageHeight="1100" math="0" shadow="0">
      <root>
        <mxCell id="0" />
        <mxCell id="1" parent="0" />
        <mxCell id="UyT2j0jTFVru7PbHKCi7-97" value="" style="endArrow=none;dashed=1;html=1;rounded=0;entryX=0.5;entryY=1;entryDx=0;entryDy=0;" edge="1" parent="1" source="UyT2j0jTFVru7PbHKCi7-117" target="UyT2j0jTFVru7PbHKCi7-96">
          <mxGeometry width="50" height="50" relative="1" as="geometry">
            <mxPoint x="1520" y="1460" as="sourcePoint" />
            <mxPoint x="1410" y="340" as="targetPoint" />
          </mxGeometry>
        </mxCell>
        <mxCell id="UyT2j0jTFVru7PbHKCi7-1" value="Order detail page" style="rounded=0;whiteSpace=wrap;html=1;" vertex="1" parent="1">
          <mxGeometry x="320" y="40" width="120" height="60" as="geometry" />
        </mxCell>
        <mxCell id="UyT2j0jTFVru7PbHKCi7-2" value="Admin" style="shape=umlActor;verticalLabelPosition=bottom;verticalAlign=top;html=1;outlineConnect=0;" vertex="1" parent="1">
          <mxGeometry x="-54" y="40" width="30" height="60" as="geometry" />
        </mxCell>
        <mxCell id="UyT2j0jTFVru7PbHKCi7-4" value="" style="endArrow=none;dashed=1;html=1;rounded=0;" edge="1" parent="1">
          <mxGeometry width="50" height="50" relative="1" as="geometry">
            <mxPoint x="-44" y="1670" as="sourcePoint" />
            <mxPoint x="-44" y="120" as="targetPoint" />
          </mxGeometry>
        </mxCell>
        <mxCell id="UyT2j0jTFVru7PbHKCi7-5" value="" style="endArrow=none;dashed=1;html=1;rounded=0;entryX=0.5;entryY=1;entryDx=0;entryDy=0;" edge="1" parent="1" source="UyT2j0jTFVru7PbHKCi7-50" target="UyT2j0jTFVru7PbHKCi7-1">
          <mxGeometry width="50" height="50" relative="1" as="geometry">
            <mxPoint x="380" y="1100" as="sourcePoint" />
            <mxPoint x="660" y="210" as="targetPoint" />
          </mxGeometry>
        </mxCell>
        <mxCell id="UyT2j0jTFVru7PbHKCi7-11" value="AdminController" style="rounded=0;whiteSpace=wrap;html=1;" vertex="1" parent="1">
          <mxGeometry x="565" y="39" width="120" height="60" as="geometry" />
        </mxCell>
        <mxCell id="UyT2j0jTFVru7PbHKCi7-12" value="" style="endArrow=none;dashed=1;html=1;rounded=0;entryX=0.5;entryY=1;entryDx=0;entryDy=0;" edge="1" parent="1" target="UyT2j0jTFVru7PbHKCi7-11" source="UyT2j0jTFVru7PbHKCi7-31">
          <mxGeometry width="50" height="50" relative="1" as="geometry">
            <mxPoint x="625" y="1099" as="sourcePoint" />
            <mxPoint x="905" y="209" as="targetPoint" />
          </mxGeometry>
        </mxCell>
        <mxCell id="UyT2j0jTFVru7PbHKCi7-13" value="odDAO: OrderDAO" style="rounded=0;whiteSpace=wrap;html=1;" vertex="1" parent="1">
          <mxGeometry x="800" y="39" width="120" height="60" as="geometry" />
        </mxCell>
        <mxCell id="UyT2j0jTFVru7PbHKCi7-14" value="" style="endArrow=none;dashed=1;html=1;rounded=0;entryX=0.5;entryY=1;entryDx=0;entryDy=0;" edge="1" parent="1" target="UyT2j0jTFVru7PbHKCi7-13" source="UyT2j0jTFVru7PbHKCi7-38">
          <mxGeometry width="50" height="50" relative="1" as="geometry">
            <mxPoint x="860" y="1099" as="sourcePoint" />
            <mxPoint x="1140" y="209" as="targetPoint" />
          </mxGeometry>
        </mxCell>
        <mxCell id="UyT2j0jTFVru7PbHKCi7-15" value="pDAO:ProductDAO" style="rounded=0;whiteSpace=wrap;html=1;" vertex="1" parent="1">
          <mxGeometry x="1018" y="39" width="120" height="60" as="geometry" />
        </mxCell>
        <mxCell id="UyT2j0jTFVru7PbHKCi7-16" value="" style="endArrow=none;dashed=1;html=1;rounded=0;entryX=0.5;entryY=1;entryDx=0;entryDy=0;" edge="1" parent="1" target="UyT2j0jTFVru7PbHKCi7-15" source="UyT2j0jTFVru7PbHKCi7-70">
          <mxGeometry width="50" height="50" relative="1" as="geometry">
            <mxPoint x="1078" y="1099" as="sourcePoint" />
            <mxPoint x="1358" y="209" as="targetPoint" />
          </mxGeometry>
        </mxCell>
        <mxCell id="UyT2j0jTFVru7PbHKCi7-17" value="odMDAO: OrderManagerDAO" style="rounded=0;whiteSpace=wrap;html=1;" vertex="1" parent="1">
          <mxGeometry x="1246" y="38" width="120" height="60" as="geometry" />
        </mxCell>
        <mxCell id="UyT2j0jTFVru7PbHKCi7-18" value="" style="endArrow=none;dashed=1;html=1;rounded=0;entryX=0.5;entryY=1;entryDx=0;entryDy=0;" edge="1" parent="1" target="UyT2j0jTFVru7PbHKCi7-17" source="UyT2j0jTFVru7PbHKCi7-83">
          <mxGeometry width="50" height="50" relative="1" as="geometry">
            <mxPoint x="1306" y="1098" as="sourcePoint" />
            <mxPoint x="1586" y="208" as="targetPoint" />
          </mxGeometry>
        </mxCell>
        <mxCell id="UyT2j0jTFVru7PbHKCi7-19" value="DB" style="shape=cylinder3;whiteSpace=wrap;html=1;boundedLbl=1;backgroundOutline=1;size=15;" vertex="1" parent="1">
          <mxGeometry x="1663" y="29" width="60" height="80" as="geometry" />
        </mxCell>
        <mxCell id="UyT2j0jTFVru7PbHKCi7-20" value="" style="endArrow=none;dashed=1;html=1;rounded=0;entryX=0.5;entryY=1;entryDx=0;entryDy=0;entryPerimeter=0;" edge="1" parent="1" source="UyT2j0jTFVru7PbHKCi7-42" target="UyT2j0jTFVru7PbHKCi7-19">
          <mxGeometry width="50" height="50" relative="1" as="geometry">
            <mxPoint x="1693" y="1100" as="sourcePoint" />
            <mxPoint x="1743" y="290" as="targetPoint" />
          </mxGeometry>
        </mxCell>
        <mxCell id="UyT2j0jTFVru7PbHKCi7-23" value="Order List page" style="rounded=0;whiteSpace=wrap;html=1;" vertex="1" parent="1">
          <mxGeometry x="118" y="39" width="120" height="60" as="geometry" />
        </mxCell>
        <mxCell id="UyT2j0jTFVru7PbHKCi7-24" value="" style="endArrow=none;dashed=1;html=1;rounded=0;entryX=0.5;entryY=1;entryDx=0;entryDy=0;" edge="1" parent="1" source="UyT2j0jTFVru7PbHKCi7-27">
          <mxGeometry width="50" height="50" relative="1" as="geometry">
            <mxPoint x="176" y="1099" as="sourcePoint" />
            <mxPoint x="176" y="99" as="targetPoint" />
          </mxGeometry>
        </mxCell>
        <mxCell id="UyT2j0jTFVru7PbHKCi7-25" value="" style="endArrow=classic;html=1;rounded=0;entryX=0;entryY=0;entryDx=0;entryDy=0;" edge="1" parent="1" target="UyT2j0jTFVru7PbHKCi7-27">
          <mxGeometry width="50" height="50" relative="1" as="geometry">
            <mxPoint x="-40" y="160" as="sourcePoint" />
            <mxPoint x="170" y="160" as="targetPoint" />
          </mxGeometry>
        </mxCell>
        <mxCell id="UyT2j0jTFVru7PbHKCi7-26" value="1. View order detail action" style="edgeLabel;html=1;align=center;verticalAlign=middle;resizable=0;points=[];" vertex="1" connectable="0" parent="UyT2j0jTFVru7PbHKCi7-25">
          <mxGeometry x="-0.2775" relative="1" as="geometry">
            <mxPoint as="offset" />
          </mxGeometry>
        </mxCell>
        <mxCell id="UyT2j0jTFVru7PbHKCi7-28" value="" style="endArrow=none;dashed=1;html=1;rounded=0;entryX=0.5;entryY=1;entryDx=0;entryDy=0;" edge="1" parent="1" target="UyT2j0jTFVru7PbHKCi7-27">
          <mxGeometry width="50" height="50" relative="1" as="geometry">
            <mxPoint x="178" y="1670" as="sourcePoint" />
            <mxPoint x="176" y="99" as="targetPoint" />
          </mxGeometry>
        </mxCell>
        <mxCell id="UyT2j0jTFVru7PbHKCi7-27" value="" style="rounded=0;whiteSpace=wrap;html=1;" vertex="1" parent="1">
          <mxGeometry x="173" y="160" width="10" height="70" as="geometry" />
        </mxCell>
        <mxCell id="UyT2j0jTFVru7PbHKCi7-29" value="" style="endArrow=classic;html=1;rounded=0;exitX=0.946;exitY=0.14;exitDx=0;exitDy=0;exitPerimeter=0;entryX=0.25;entryY=0;entryDx=0;entryDy=0;" edge="1" parent="1" source="UyT2j0jTFVru7PbHKCi7-27" target="UyT2j0jTFVru7PbHKCi7-31">
          <mxGeometry width="50" height="50" relative="1" as="geometry">
            <mxPoint x="190" y="170" as="sourcePoint" />
            <mxPoint x="610" y="170" as="targetPoint" />
          </mxGeometry>
        </mxCell>
        <mxCell id="UyT2j0jTFVru7PbHKCi7-30" value="2. doGet()" style="edgeLabel;html=1;align=center;verticalAlign=middle;resizable=0;points=[];" vertex="1" connectable="0" parent="UyT2j0jTFVru7PbHKCi7-29">
          <mxGeometry x="0.3069" y="-2" relative="1" as="geometry">
            <mxPoint as="offset" />
          </mxGeometry>
        </mxCell>
        <mxCell id="UyT2j0jTFVru7PbHKCi7-32" value="" style="endArrow=none;dashed=1;html=1;rounded=0;entryX=0.5;entryY=1;entryDx=0;entryDy=0;" edge="1" parent="1" target="UyT2j0jTFVru7PbHKCi7-31">
          <mxGeometry width="50" height="50" relative="1" as="geometry">
            <mxPoint x="625" y="1099" as="sourcePoint" />
            <mxPoint x="625" y="99" as="targetPoint" />
          </mxGeometry>
        </mxCell>
        <mxCell id="UyT2j0jTFVru7PbHKCi7-31" value="" style="rounded=0;whiteSpace=wrap;html=1;" vertex="1" parent="1">
          <mxGeometry x="620" y="170" width="10" height="1360" as="geometry" />
        </mxCell>
        <mxCell id="UyT2j0jTFVru7PbHKCi7-33" value="" style="endArrow=classic;html=1;rounded=0;exitX=1.157;exitY=0.015;exitDx=0;exitDy=0;exitPerimeter=0;entryX=1.27;entryY=0.024;entryDx=0;entryDy=0;entryPerimeter=0;" edge="1" parent="1" source="UyT2j0jTFVru7PbHKCi7-31" target="UyT2j0jTFVru7PbHKCi7-34">
          <mxGeometry width="50" height="50" relative="1" as="geometry">
            <mxPoint x="640" y="190" as="sourcePoint" />
            <mxPoint x="660" y="250" as="targetPoint" />
            <Array as="points">
              <mxPoint x="690" y="190" />
              <mxPoint x="690" y="250" />
            </Array>
          </mxGeometry>
        </mxCell>
        <mxCell id="UyT2j0jTFVru7PbHKCi7-35" value="3. orderDetail()" style="edgeLabel;html=1;align=center;verticalAlign=middle;resizable=0;points=[];" vertex="1" connectable="0" parent="UyT2j0jTFVru7PbHKCi7-33">
          <mxGeometry x="0.14" relative="1" as="geometry">
            <mxPoint as="offset" />
          </mxGeometry>
        </mxCell>
        <mxCell id="UyT2j0jTFVru7PbHKCi7-34" value="" style="rounded=0;whiteSpace=wrap;html=1;" vertex="1" parent="1">
          <mxGeometry x="630" y="220" width="10" height="1300" as="geometry" />
        </mxCell>
        <mxCell id="UyT2j0jTFVru7PbHKCi7-36" value="" style="endArrow=classic;html=1;rounded=0;exitX=1.066;exitY=0.046;exitDx=0;exitDy=0;exitPerimeter=0;entryX=0;entryY=0;entryDx=0;entryDy=0;" edge="1" parent="1" source="UyT2j0jTFVru7PbHKCi7-34" target="UyT2j0jTFVru7PbHKCi7-38">
          <mxGeometry width="50" height="50" relative="1" as="geometry">
            <mxPoint x="650" y="280" as="sourcePoint" />
            <mxPoint x="840" y="280" as="targetPoint" />
          </mxGeometry>
        </mxCell>
        <mxCell id="UyT2j0jTFVru7PbHKCi7-37" value="4. getOrderByOrderID()" style="edgeLabel;html=1;align=center;verticalAlign=middle;resizable=0;points=[];" vertex="1" connectable="0" parent="UyT2j0jTFVru7PbHKCi7-36">
          <mxGeometry x="0.0916" y="3" relative="1" as="geometry">
            <mxPoint as="offset" />
          </mxGeometry>
        </mxCell>
        <mxCell id="UyT2j0jTFVru7PbHKCi7-39" value="" style="endArrow=none;dashed=1;html=1;rounded=0;entryX=0.5;entryY=1;entryDx=0;entryDy=0;" edge="1" parent="1" source="UyT2j0jTFVru7PbHKCi7-58" target="UyT2j0jTFVru7PbHKCi7-38">
          <mxGeometry width="50" height="50" relative="1" as="geometry">
            <mxPoint x="860" y="1099" as="sourcePoint" />
            <mxPoint x="860" y="99" as="targetPoint" />
          </mxGeometry>
        </mxCell>
        <mxCell id="UyT2j0jTFVru7PbHKCi7-38" value="" style="rounded=0;whiteSpace=wrap;html=1;" vertex="1" parent="1">
          <mxGeometry x="855" y="280" width="10" height="270" as="geometry" />
        </mxCell>
        <mxCell id="UyT2j0jTFVru7PbHKCi7-40" value="" style="endArrow=classic;html=1;rounded=0;exitX=0.941;exitY=0.076;exitDx=0;exitDy=0;exitPerimeter=0;entryX=0;entryY=0;entryDx=0;entryDy=0;" edge="1" parent="1" source="UyT2j0jTFVru7PbHKCi7-38" target="UyT2j0jTFVru7PbHKCi7-42">
          <mxGeometry width="50" height="50" relative="1" as="geometry">
            <mxPoint x="870" y="300" as="sourcePoint" />
            <mxPoint x="1680" y="300" as="targetPoint" />
          </mxGeometry>
        </mxCell>
        <mxCell id="UyT2j0jTFVru7PbHKCi7-41" value="5. executeQuery()" style="edgeLabel;html=1;align=center;verticalAlign=middle;resizable=0;points=[];" vertex="1" connectable="0" parent="UyT2j0jTFVru7PbHKCi7-40">
          <mxGeometry x="-0.5724" y="2" relative="1" as="geometry">
            <mxPoint x="-57" y="-3" as="offset" />
          </mxGeometry>
        </mxCell>
        <mxCell id="UyT2j0jTFVru7PbHKCi7-43" value="" style="endArrow=none;dashed=1;html=1;rounded=0;entryX=0.5;entryY=1;entryDx=0;entryDy=0;entryPerimeter=0;" edge="1" parent="1" source="UyT2j0jTFVru7PbHKCi7-61" target="UyT2j0jTFVru7PbHKCi7-42">
          <mxGeometry width="50" height="50" relative="1" as="geometry">
            <mxPoint x="1693" y="1100" as="sourcePoint" />
            <mxPoint x="1693" y="109" as="targetPoint" />
          </mxGeometry>
        </mxCell>
        <mxCell id="UyT2j0jTFVru7PbHKCi7-42" value="" style="rounded=0;whiteSpace=wrap;html=1;" vertex="1" parent="1">
          <mxGeometry x="1688" y="300" width="10" height="60" as="geometry" />
        </mxCell>
        <mxCell id="UyT2j0jTFVru7PbHKCi7-44" value="" style="endArrow=classic;html=1;rounded=0;dashed=1;exitX=0;exitY=1;exitDx=0;exitDy=0;entryX=0.94;entryY=0.296;entryDx=0;entryDy=0;entryPerimeter=0;" edge="1" parent="1" source="UyT2j0jTFVru7PbHKCi7-42" target="UyT2j0jTFVru7PbHKCi7-38">
          <mxGeometry width="50" height="50" relative="1" as="geometry">
            <mxPoint x="1680" y="360" as="sourcePoint" />
            <mxPoint x="870" y="360" as="targetPoint" />
          </mxGeometry>
        </mxCell>
        <mxCell id="UyT2j0jTFVru7PbHKCi7-45" value="6. return result" style="edgeLabel;html=1;align=center;verticalAlign=middle;resizable=0;points=[];" vertex="1" connectable="0" parent="UyT2j0jTFVru7PbHKCi7-44">
          <mxGeometry x="0.2452" y="1" relative="1" as="geometry">
            <mxPoint x="-162" y="-1" as="offset" />
          </mxGeometry>
        </mxCell>
        <mxCell id="UyT2j0jTFVru7PbHKCi7-46" value="" style="endArrow=classic;html=1;rounded=0;dashed=1;entryX=1.098;entryY=0.13;entryDx=0;entryDy=0;entryPerimeter=0;exitX=0.145;exitY=0.406;exitDx=0;exitDy=0;exitPerimeter=0;" edge="1" parent="1" source="UyT2j0jTFVru7PbHKCi7-38" target="UyT2j0jTFVru7PbHKCi7-34">
          <mxGeometry width="50" height="50" relative="1" as="geometry">
            <mxPoint x="850" y="390" as="sourcePoint" />
            <mxPoint x="650" y="390" as="targetPoint" />
          </mxGeometry>
        </mxCell>
        <mxCell id="UyT2j0jTFVru7PbHKCi7-47" value="7. Order is not exists" style="edgeLabel;html=1;align=center;verticalAlign=middle;resizable=0;points=[];" vertex="1" connectable="0" parent="UyT2j0jTFVru7PbHKCi7-46">
          <mxGeometry x="-0.3511" y="-1" relative="1" as="geometry">
            <mxPoint x="-35" as="offset" />
          </mxGeometry>
        </mxCell>
        <mxCell id="UyT2j0jTFVru7PbHKCi7-48" value="" style="endArrow=classic;html=1;rounded=0;dashed=1;exitX=-0.21;exitY=0.183;exitDx=0;exitDy=0;exitPerimeter=0;entryX=1.299;entryY=0.01;entryDx=0;entryDy=0;entryPerimeter=0;" edge="1" parent="1" source="UyT2j0jTFVru7PbHKCi7-31" target="UyT2j0jTFVru7PbHKCi7-50">
          <mxGeometry width="50" height="50" relative="1" as="geometry">
            <mxPoint x="610" y="420" as="sourcePoint" />
            <mxPoint x="400" y="420" as="targetPoint" />
          </mxGeometry>
        </mxCell>
        <mxCell id="UyT2j0jTFVru7PbHKCi7-49" value="7.1 Order not found notification" style="edgeLabel;html=1;align=center;verticalAlign=middle;resizable=0;points=[];" vertex="1" connectable="0" parent="UyT2j0jTFVru7PbHKCi7-48">
          <mxGeometry x="-0.1597" relative="1" as="geometry">
            <mxPoint x="-22" y="-10" as="offset" />
          </mxGeometry>
        </mxCell>
        <mxCell id="UyT2j0jTFVru7PbHKCi7-51" value="" style="endArrow=none;dashed=1;html=1;rounded=0;entryX=0.5;entryY=1;entryDx=0;entryDy=0;" edge="1" parent="1" target="UyT2j0jTFVru7PbHKCi7-50">
          <mxGeometry width="50" height="50" relative="1" as="geometry">
            <mxPoint x="380" y="1580" as="sourcePoint" />
            <mxPoint x="380" y="100" as="targetPoint" />
          </mxGeometry>
        </mxCell>
        <mxCell id="UyT2j0jTFVru7PbHKCi7-50" value="" style="rounded=0;whiteSpace=wrap;html=1;" vertex="1" parent="1">
          <mxGeometry x="375" y="410" width="10" height="1110" as="geometry" />
        </mxCell>
        <mxCell id="UyT2j0jTFVru7PbHKCi7-52" value="" style="endArrow=classic;html=1;rounded=0;dashed=1;exitX=0.025;exitY=0.029;exitDx=0;exitDy=0;exitPerimeter=0;" edge="1" parent="1" source="UyT2j0jTFVru7PbHKCi7-50">
          <mxGeometry width="50" height="50" relative="1" as="geometry">
            <mxPoint x="370" y="440" as="sourcePoint" />
            <mxPoint x="-40" y="440" as="targetPoint" />
          </mxGeometry>
        </mxCell>
        <mxCell id="UyT2j0jTFVru7PbHKCi7-53" value="7.2 Order not found notification" style="edgeLabel;html=1;align=center;verticalAlign=middle;resizable=0;points=[];" vertex="1" connectable="0" parent="UyT2j0jTFVru7PbHKCi7-52">
          <mxGeometry x="-0.1446" y="3" relative="1" as="geometry">
            <mxPoint x="81" y="-3" as="offset" />
          </mxGeometry>
        </mxCell>
        <mxCell id="UyT2j0jTFVru7PbHKCi7-54" value="" style="endArrow=classic;html=1;rounded=0;dashed=1;exitX=-0.125;exitY=0.959;exitDx=0;exitDy=0;exitPerimeter=0;entryX=1.273;entryY=0.246;entryDx=0;entryDy=0;entryPerimeter=0;" edge="1" parent="1" source="UyT2j0jTFVru7PbHKCi7-38" target="UyT2j0jTFVru7PbHKCi7-34">
          <mxGeometry width="50" height="50" relative="1" as="geometry">
            <mxPoint x="840" y="540" as="sourcePoint" />
            <mxPoint x="650" y="539" as="targetPoint" />
          </mxGeometry>
        </mxCell>
        <mxCell id="UyT2j0jTFVru7PbHKCi7-55" value="8. Return Order" style="edgeLabel;html=1;align=center;verticalAlign=middle;resizable=0;points=[];" vertex="1" connectable="0" parent="UyT2j0jTFVru7PbHKCi7-54">
          <mxGeometry x="-0.4901" y="2" relative="1" as="geometry">
            <mxPoint as="offset" />
          </mxGeometry>
        </mxCell>
        <mxCell id="UyT2j0jTFVru7PbHKCi7-56" value="" style="endArrow=classic;html=1;rounded=0;exitX=1.228;exitY=0.315;exitDx=0;exitDy=0;exitPerimeter=0;" edge="1" parent="1" source="UyT2j0jTFVru7PbHKCi7-34">
          <mxGeometry width="50" height="50" relative="1" as="geometry">
            <mxPoint x="650" y="630" as="sourcePoint" />
            <mxPoint x="850" y="630" as="targetPoint" />
          </mxGeometry>
        </mxCell>
        <mxCell id="UyT2j0jTFVru7PbHKCi7-57" value="8.1 getOrderDetailByOrderID()" style="edgeLabel;html=1;align=center;verticalAlign=middle;resizable=0;points=[];" vertex="1" connectable="0" parent="UyT2j0jTFVru7PbHKCi7-56">
          <mxGeometry x="-0.255" y="-2" relative="1" as="geometry">
            <mxPoint x="20" y="-2" as="offset" />
          </mxGeometry>
        </mxCell>
        <mxCell id="UyT2j0jTFVru7PbHKCi7-59" value="" style="endArrow=none;dashed=1;html=1;rounded=0;entryX=0.5;entryY=1;entryDx=0;entryDy=0;" edge="1" parent="1" source="UyT2j0jTFVru7PbHKCi7-103" target="UyT2j0jTFVru7PbHKCi7-58">
          <mxGeometry width="50" height="50" relative="1" as="geometry">
            <mxPoint x="860" y="1220" as="sourcePoint" />
            <mxPoint x="860" y="550" as="targetPoint" />
          </mxGeometry>
        </mxCell>
        <mxCell id="UyT2j0jTFVru7PbHKCi7-58" value="" style="rounded=0;whiteSpace=wrap;html=1;" vertex="1" parent="1">
          <mxGeometry x="855" y="630" width="10" height="250" as="geometry" />
        </mxCell>
        <mxCell id="UyT2j0jTFVru7PbHKCi7-60" value="" style="endArrow=classic;html=1;rounded=0;exitX=1.017;exitY=0.072;exitDx=0;exitDy=0;exitPerimeter=0;" edge="1" parent="1" source="UyT2j0jTFVru7PbHKCi7-58">
          <mxGeometry width="50" height="50" relative="1" as="geometry">
            <mxPoint x="875" y="650" as="sourcePoint" />
            <mxPoint x="1690" y="648" as="targetPoint" />
          </mxGeometry>
        </mxCell>
        <mxCell id="UyT2j0jTFVru7PbHKCi7-64" value="8.2 executeQuery()" style="edgeLabel;html=1;align=center;verticalAlign=middle;resizable=0;points=[];" vertex="1" connectable="0" parent="UyT2j0jTFVru7PbHKCi7-60">
          <mxGeometry x="-0.0904" y="-3" relative="1" as="geometry">
            <mxPoint x="-258" y="-3" as="offset" />
          </mxGeometry>
        </mxCell>
        <mxCell id="UyT2j0jTFVru7PbHKCi7-62" value="" style="endArrow=none;dashed=1;html=1;rounded=0;entryX=0.5;entryY=1;entryDx=0;entryDy=0;entryPerimeter=0;" edge="1" parent="1" source="UyT2j0jTFVru7PbHKCi7-73" target="UyT2j0jTFVru7PbHKCi7-61">
          <mxGeometry width="50" height="50" relative="1" as="geometry">
            <mxPoint x="1693" y="1100" as="sourcePoint" />
            <mxPoint x="1520" y="360" as="targetPoint" />
          </mxGeometry>
        </mxCell>
        <mxCell id="UyT2j0jTFVru7PbHKCi7-61" value="" style="rounded=0;whiteSpace=wrap;html=1;" vertex="1" parent="1">
          <mxGeometry x="1688" y="650" width="10" height="60" as="geometry" />
        </mxCell>
        <mxCell id="UyT2j0jTFVru7PbHKCi7-63" value="" style="endArrow=classic;html=1;rounded=0;dashed=1;exitX=0;exitY=1;exitDx=0;exitDy=0;entryX=0.978;entryY=0.323;entryDx=0;entryDy=0;entryPerimeter=0;" edge="1" parent="1" source="UyT2j0jTFVru7PbHKCi7-61" target="UyT2j0jTFVru7PbHKCi7-58">
          <mxGeometry width="50" height="50" relative="1" as="geometry">
            <mxPoint x="1680" y="710" as="sourcePoint" />
            <mxPoint x="870" y="710" as="targetPoint" />
          </mxGeometry>
        </mxCell>
        <mxCell id="UyT2j0jTFVru7PbHKCi7-65" value="8.3 return list product id, quantity, price belong to order" style="edgeLabel;html=1;align=center;verticalAlign=middle;resizable=0;points=[];" vertex="1" connectable="0" parent="UyT2j0jTFVru7PbHKCi7-63">
          <mxGeometry x="0.1666" relative="1" as="geometry">
            <mxPoint x="-189" y="-10" as="offset" />
          </mxGeometry>
        </mxCell>
        <mxCell id="UyT2j0jTFVru7PbHKCi7-68" value="" style="endArrow=classic;html=1;rounded=0;exitX=1.096;exitY=0.562;exitDx=0;exitDy=0;exitPerimeter=0;" edge="1" parent="1" source="UyT2j0jTFVru7PbHKCi7-58">
          <mxGeometry width="50" height="50" relative="1" as="geometry">
            <mxPoint x="880" y="770" as="sourcePoint" />
            <mxPoint x="1070" y="770" as="targetPoint" />
          </mxGeometry>
        </mxCell>
        <mxCell id="UyT2j0jTFVru7PbHKCi7-69" value="8.4 getProductByProductID()" style="edgeLabel;html=1;align=center;verticalAlign=middle;resizable=0;points=[];" vertex="1" connectable="0" parent="UyT2j0jTFVru7PbHKCi7-68">
          <mxGeometry x="-0.5575" y="2" relative="1" as="geometry">
            <mxPoint x="45" as="offset" />
          </mxGeometry>
        </mxCell>
        <mxCell id="UyT2j0jTFVru7PbHKCi7-71" value="" style="endArrow=none;dashed=1;html=1;rounded=0;entryX=0.5;entryY=1;entryDx=0;entryDy=0;" edge="1" parent="1" target="UyT2j0jTFVru7PbHKCi7-70">
          <mxGeometry width="50" height="50" relative="1" as="geometry">
            <mxPoint x="1080" y="1530" as="sourcePoint" />
            <mxPoint x="1078" y="99" as="targetPoint" />
          </mxGeometry>
        </mxCell>
        <mxCell id="UyT2j0jTFVru7PbHKCi7-70" value="" style="rounded=0;whiteSpace=wrap;html=1;" vertex="1" parent="1">
          <mxGeometry x="1073" y="770" width="10" height="100" as="geometry" />
        </mxCell>
        <mxCell id="UyT2j0jTFVru7PbHKCi7-72" value="" style="endArrow=classic;html=1;rounded=0;exitX=0.996;exitY=0.198;exitDx=0;exitDy=0;exitPerimeter=0;entryX=0;entryY=0;entryDx=0;entryDy=0;" edge="1" parent="1" source="UyT2j0jTFVru7PbHKCi7-70" target="UyT2j0jTFVru7PbHKCi7-73">
          <mxGeometry width="50" height="50" relative="1" as="geometry">
            <mxPoint x="1090" y="790" as="sourcePoint" />
            <mxPoint x="1680" y="790" as="targetPoint" />
          </mxGeometry>
        </mxCell>
        <mxCell id="UyT2j0jTFVru7PbHKCi7-133" value="8.5 executeQuery()" style="edgeLabel;html=1;align=center;verticalAlign=middle;resizable=0;points=[];" vertex="1" connectable="0" parent="UyT2j0jTFVru7PbHKCi7-72">
          <mxGeometry x="-0.7578" y="2" relative="1" as="geometry">
            <mxPoint as="offset" />
          </mxGeometry>
        </mxCell>
        <mxCell id="UyT2j0jTFVru7PbHKCi7-74" value="" style="endArrow=none;dashed=1;html=1;rounded=0;entryX=0.5;entryY=1;entryDx=0;entryDy=0;entryPerimeter=0;" edge="1" parent="1" source="UyT2j0jTFVru7PbHKCi7-89" target="UyT2j0jTFVru7PbHKCi7-73">
          <mxGeometry width="50" height="50" relative="1" as="geometry">
            <mxPoint x="1693" y="1100" as="sourcePoint" />
            <mxPoint x="1693" y="710" as="targetPoint" />
          </mxGeometry>
        </mxCell>
        <mxCell id="UyT2j0jTFVru7PbHKCi7-73" value="" style="rounded=0;whiteSpace=wrap;html=1;" vertex="1" parent="1">
          <mxGeometry x="1688" y="790" width="10" height="60" as="geometry" />
        </mxCell>
        <mxCell id="UyT2j0jTFVru7PbHKCi7-75" value="" style="endArrow=classic;html=1;rounded=0;dashed=1;exitX=0;exitY=1;exitDx=0;exitDy=0;entryX=0.996;entryY=0.823;entryDx=0;entryDy=0;entryPerimeter=0;" edge="1" parent="1" source="UyT2j0jTFVru7PbHKCi7-73" target="UyT2j0jTFVru7PbHKCi7-70">
          <mxGeometry width="50" height="50" relative="1" as="geometry">
            <mxPoint x="1680" y="850" as="sourcePoint" />
            <mxPoint x="1090" y="850" as="targetPoint" />
          </mxGeometry>
        </mxCell>
        <mxCell id="UyT2j0jTFVru7PbHKCi7-76" value="8.6 return result" style="edgeLabel;html=1;align=center;verticalAlign=middle;resizable=0;points=[];" vertex="1" connectable="0" parent="UyT2j0jTFVru7PbHKCi7-75">
          <mxGeometry x="-0.1043" y="-2" relative="1" as="geometry">
            <mxPoint x="-220" y="2" as="offset" />
          </mxGeometry>
        </mxCell>
        <mxCell id="UyT2j0jTFVru7PbHKCi7-77" value="" style="endArrow=classic;html=1;rounded=0;dashed=1;entryX=0.968;entryY=0.928;entryDx=0;entryDy=0;entryPerimeter=0;" edge="1" parent="1" target="UyT2j0jTFVru7PbHKCi7-58">
          <mxGeometry width="50" height="50" relative="1" as="geometry">
            <mxPoint x="1070" y="860" as="sourcePoint" />
            <mxPoint x="870" y="860" as="targetPoint" />
          </mxGeometry>
        </mxCell>
        <mxCell id="UyT2j0jTFVru7PbHKCi7-78" value="8.7 return a product" style="edgeLabel;html=1;align=center;verticalAlign=middle;resizable=0;points=[];" vertex="1" connectable="0" parent="UyT2j0jTFVru7PbHKCi7-77">
          <mxGeometry x="-0.2851" y="-2" relative="1" as="geometry">
            <mxPoint x="-19" as="offset" />
          </mxGeometry>
        </mxCell>
        <mxCell id="UyT2j0jTFVru7PbHKCi7-79" value="" style="endArrow=classic;html=1;rounded=0;exitX=0;exitY=1;exitDx=0;exitDy=0;entryX=1.098;entryY=0.507;entryDx=0;entryDy=0;entryPerimeter=0;" edge="1" parent="1" source="UyT2j0jTFVru7PbHKCi7-58" target="UyT2j0jTFVru7PbHKCi7-34">
          <mxGeometry width="50" height="50" relative="1" as="geometry">
            <mxPoint x="850" y="880" as="sourcePoint" />
            <mxPoint x="650" y="880" as="targetPoint" />
          </mxGeometry>
        </mxCell>
        <mxCell id="UyT2j0jTFVru7PbHKCi7-80" value="8.8 return list order detail" style="edgeLabel;html=1;align=center;verticalAlign=middle;resizable=0;points=[];" vertex="1" connectable="0" parent="UyT2j0jTFVru7PbHKCi7-79">
          <mxGeometry x="-0.043" y="3" relative="1" as="geometry">
            <mxPoint x="-14" y="-3" as="offset" />
          </mxGeometry>
        </mxCell>
        <mxCell id="UyT2j0jTFVru7PbHKCi7-81" value="" style="endArrow=classic;html=1;rounded=0;exitX=1.097;exitY=0.569;exitDx=0;exitDy=0;exitPerimeter=0;entryX=0;entryY=0;entryDx=0;entryDy=0;" edge="1" parent="1" source="UyT2j0jTFVru7PbHKCi7-34" target="UyT2j0jTFVru7PbHKCi7-83">
          <mxGeometry width="50" height="50" relative="1" as="geometry">
            <mxPoint x="650" y="960" as="sourcePoint" />
            <mxPoint x="1290" y="960" as="targetPoint" />
          </mxGeometry>
        </mxCell>
        <mxCell id="UyT2j0jTFVru7PbHKCi7-82" value="8.9 getOrderManagerByOrderManagerID()" style="edgeLabel;html=1;align=center;verticalAlign=middle;resizable=0;points=[];" vertex="1" connectable="0" parent="UyT2j0jTFVru7PbHKCi7-81">
          <mxGeometry x="0.2439" y="-2" relative="1" as="geometry">
            <mxPoint x="-295" y="-12" as="offset" />
          </mxGeometry>
        </mxCell>
        <mxCell id="UyT2j0jTFVru7PbHKCi7-84" value="" style="endArrow=none;dashed=1;html=1;rounded=0;entryX=0.5;entryY=1;entryDx=0;entryDy=0;" edge="1" parent="1" target="UyT2j0jTFVru7PbHKCi7-83">
          <mxGeometry width="50" height="50" relative="1" as="geometry">
            <mxPoint x="1306" y="1540" as="sourcePoint" />
            <mxPoint x="1306" y="98" as="targetPoint" />
          </mxGeometry>
        </mxCell>
        <mxCell id="UyT2j0jTFVru7PbHKCi7-83" value="" style="rounded=0;whiteSpace=wrap;html=1;" vertex="1" parent="1">
          <mxGeometry x="1300.62" y="960" width="10.77" height="90" as="geometry" />
        </mxCell>
        <mxCell id="UyT2j0jTFVru7PbHKCi7-86" value="" style="endArrow=classic;html=1;rounded=0;exitX=1.064;exitY=0.106;exitDx=0;exitDy=0;exitPerimeter=0;entryX=0;entryY=0;entryDx=0;entryDy=0;" edge="1" parent="1" source="UyT2j0jTFVru7PbHKCi7-83" target="UyT2j0jTFVru7PbHKCi7-89">
          <mxGeometry width="50" height="50" relative="1" as="geometry">
            <mxPoint x="1320" y="970" as="sourcePoint" />
            <mxPoint x="1682.908935546875" y="970" as="targetPoint" />
          </mxGeometry>
        </mxCell>
        <mxCell id="UyT2j0jTFVru7PbHKCi7-87" value="8.10 executeQuery()" style="edgeLabel;html=1;align=center;verticalAlign=middle;resizable=0;points=[];" vertex="1" connectable="0" parent="UyT2j0jTFVru7PbHKCi7-86">
          <mxGeometry x="0.2405" relative="1" as="geometry">
            <mxPoint x="-165" as="offset" />
          </mxGeometry>
        </mxCell>
        <mxCell id="UyT2j0jTFVru7PbHKCi7-88" value="" style="endArrow=classic;html=1;rounded=0;dashed=1;exitX=0;exitY=1;exitDx=0;exitDy=0;" edge="1" parent="1" source="UyT2j0jTFVru7PbHKCi7-89">
          <mxGeometry width="50" height="50" relative="1" as="geometry">
            <mxPoint x="1680" y="1030" as="sourcePoint" />
            <mxPoint x="1310" y="1030" as="targetPoint" />
          </mxGeometry>
        </mxCell>
        <mxCell id="UyT2j0jTFVru7PbHKCi7-93" value="8.11 return result" style="edgeLabel;html=1;align=center;verticalAlign=middle;resizable=0;points=[];" vertex="1" connectable="0" parent="UyT2j0jTFVru7PbHKCi7-88">
          <mxGeometry x="-0.1642" y="-5" relative="1" as="geometry">
            <mxPoint x="-133" as="offset" />
          </mxGeometry>
        </mxCell>
        <mxCell id="UyT2j0jTFVru7PbHKCi7-92" value="" style="endArrow=none;dashed=1;html=1;rounded=0;entryX=0.5;entryY=1;entryDx=0;entryDy=0;entryPerimeter=0;" edge="1" parent="1" source="UyT2j0jTFVru7PbHKCi7-100" target="UyT2j0jTFVru7PbHKCi7-89">
          <mxGeometry width="50" height="50" relative="1" as="geometry">
            <mxPoint x="1693" y="1513.0622944078948" as="sourcePoint" />
            <mxPoint x="1693" y="850" as="targetPoint" />
          </mxGeometry>
        </mxCell>
        <mxCell id="UyT2j0jTFVru7PbHKCi7-89" value="" style="rounded=0;whiteSpace=wrap;html=1;" vertex="1" parent="1">
          <mxGeometry x="1688" y="970" width="10" height="60" as="geometry" />
        </mxCell>
        <mxCell id="UyT2j0jTFVru7PbHKCi7-94" value="" style="endArrow=classic;html=1;rounded=0;dashed=1;exitX=0;exitY=1;exitDx=0;exitDy=0;" edge="1" parent="1" source="UyT2j0jTFVru7PbHKCi7-83">
          <mxGeometry width="50" height="50" relative="1" as="geometry">
            <mxPoint x="1290" y="1050" as="sourcePoint" />
            <mxPoint x="640" y="1050" as="targetPoint" />
          </mxGeometry>
        </mxCell>
        <mxCell id="UyT2j0jTFVru7PbHKCi7-95" value="8.12 return Order Manager" style="edgeLabel;html=1;align=center;verticalAlign=middle;resizable=0;points=[];" vertex="1" connectable="0" parent="UyT2j0jTFVru7PbHKCi7-94">
          <mxGeometry x="0.6588" y="-2" relative="1" as="geometry">
            <mxPoint as="offset" />
          </mxGeometry>
        </mxCell>
        <mxCell id="UyT2j0jTFVru7PbHKCi7-96" value="vDAO: VoucherDAO" style="rounded=0;whiteSpace=wrap;html=1;" vertex="1" parent="1">
          <mxGeometry x="1460" y="39" width="120" height="60" as="geometry" />
        </mxCell>
        <mxCell id="UyT2j0jTFVru7PbHKCi7-98" value="" style="endArrow=classic;html=1;rounded=0;exitX=1.218;exitY=0.692;exitDx=0;exitDy=0;exitPerimeter=0;entryX=0;entryY=0;entryDx=0;entryDy=0;" edge="1" parent="1" source="UyT2j0jTFVru7PbHKCi7-34" target="UyT2j0jTFVru7PbHKCi7-103">
          <mxGeometry width="50" height="50" relative="1" as="geometry">
            <mxPoint x="650" y="1120" as="sourcePoint" />
            <mxPoint x="840" y="1120" as="targetPoint" />
          </mxGeometry>
        </mxCell>
        <mxCell id="UyT2j0jTFVru7PbHKCi7-99" value="8.13 getHavingVoucher()" style="edgeLabel;html=1;align=center;verticalAlign=middle;resizable=0;points=[];" vertex="1" connectable="0" parent="UyT2j0jTFVru7PbHKCi7-98">
          <mxGeometry x="-0.8483" y="-1" relative="1" as="geometry">
            <mxPoint x="67" y="-1" as="offset" />
          </mxGeometry>
        </mxCell>
        <mxCell id="UyT2j0jTFVru7PbHKCi7-101" value="" style="endArrow=none;dashed=1;html=1;rounded=0;entryX=0.5;entryY=1;entryDx=0;entryDy=0;entryPerimeter=0;" edge="1" parent="1" source="UyT2j0jTFVru7PbHKCi7-121" target="UyT2j0jTFVru7PbHKCi7-100">
          <mxGeometry width="50" height="50" relative="1" as="geometry">
            <mxPoint x="1693" y="1513.0622944078948" as="sourcePoint" />
            <mxPoint x="1693" y="1030" as="targetPoint" />
          </mxGeometry>
        </mxCell>
        <mxCell id="UyT2j0jTFVru7PbHKCi7-100" value="" style="rounded=0;whiteSpace=wrap;html=1;" vertex="1" parent="1">
          <mxGeometry x="1690" y="1140" width="10" height="60" as="geometry" />
        </mxCell>
        <mxCell id="UyT2j0jTFVru7PbHKCi7-102" value="" style="endArrow=classic;html=1;rounded=0;exitX=1.009;exitY=0.181;exitDx=0;exitDy=0;exitPerimeter=0;entryX=0;entryY=0;entryDx=0;entryDy=0;" edge="1" parent="1" source="UyT2j0jTFVru7PbHKCi7-103" target="UyT2j0jTFVru7PbHKCi7-100">
          <mxGeometry width="50" height="50" relative="1" as="geometry">
            <mxPoint x="870" y="1140" as="sourcePoint" />
            <mxPoint x="1680" y="1140" as="targetPoint" />
          </mxGeometry>
        </mxCell>
        <mxCell id="UyT2j0jTFVru7PbHKCi7-106" value="8.14 executeQuery()" style="edgeLabel;html=1;align=center;verticalAlign=middle;resizable=0;points=[];" vertex="1" connectable="0" parent="UyT2j0jTFVru7PbHKCi7-102">
          <mxGeometry x="-0.7358" y="-4" relative="1" as="geometry">
            <mxPoint as="offset" />
          </mxGeometry>
        </mxCell>
        <mxCell id="UyT2j0jTFVru7PbHKCi7-104" value="" style="endArrow=none;dashed=1;html=1;rounded=0;entryX=0.5;entryY=1;entryDx=0;entryDy=0;entryPerimeter=0;" edge="1" parent="1" target="UyT2j0jTFVru7PbHKCi7-103">
          <mxGeometry width="50" height="50" relative="1" as="geometry">
            <mxPoint x="860" y="1530" as="sourcePoint" />
            <mxPoint x="860" y="880" as="targetPoint" />
          </mxGeometry>
        </mxCell>
        <mxCell id="UyT2j0jTFVru7PbHKCi7-103" value="" style="rounded=0;whiteSpace=wrap;html=1;" vertex="1" parent="1">
          <mxGeometry x="855" y="1120" width="10" height="110" as="geometry" />
        </mxCell>
        <mxCell id="UyT2j0jTFVru7PbHKCi7-105" value="" style="endArrow=classic;html=1;rounded=0;dashed=1;exitX=0;exitY=1;exitDx=0;exitDy=0;entryX=1;entryY=0.75;entryDx=0;entryDy=0;" edge="1" parent="1" source="UyT2j0jTFVru7PbHKCi7-100" target="UyT2j0jTFVru7PbHKCi7-103">
          <mxGeometry width="50" height="50" relative="1" as="geometry">
            <mxPoint x="1670" y="1200" as="sourcePoint" />
            <mxPoint x="880" y="1200" as="targetPoint" />
          </mxGeometry>
        </mxCell>
        <mxCell id="UyT2j0jTFVru7PbHKCi7-107" value="8.15 return result" style="edgeLabel;html=1;align=center;verticalAlign=middle;resizable=0;points=[];" vertex="1" connectable="0" parent="UyT2j0jTFVru7PbHKCi7-105">
          <mxGeometry x="0.6937" relative="1" as="geometry">
            <mxPoint as="offset" />
          </mxGeometry>
        </mxCell>
        <mxCell id="UyT2j0jTFVru7PbHKCi7-108" value="" style="endArrow=classic;html=1;rounded=0;dashed=1;exitX=-0.194;exitY=0.909;exitDx=0;exitDy=0;exitPerimeter=0;entryX=1.261;entryY=0.769;entryDx=0;entryDy=0;entryPerimeter=0;" edge="1" parent="1" source="UyT2j0jTFVru7PbHKCi7-103" target="UyT2j0jTFVru7PbHKCi7-34">
          <mxGeometry width="50" height="50" relative="1" as="geometry">
            <mxPoint x="850" y="1220" as="sourcePoint" />
            <mxPoint x="650" y="1220" as="targetPoint" />
          </mxGeometry>
        </mxCell>
        <mxCell id="UyT2j0jTFVru7PbHKCi7-110" value="8.16 return voucher ID" style="edgeLabel;html=1;align=center;verticalAlign=middle;resizable=0;points=[];" vertex="1" connectable="0" parent="UyT2j0jTFVru7PbHKCi7-108">
          <mxGeometry x="0.1011" y="-2" relative="1" as="geometry">
            <mxPoint x="11" y="2" as="offset" />
          </mxGeometry>
        </mxCell>
        <mxCell id="UyT2j0jTFVru7PbHKCi7-109" value="" style="endArrow=classic;html=1;rounded=0;exitX=1.138;exitY=0.83;exitDx=0;exitDy=0;exitPerimeter=0;entryX=0;entryY=0;entryDx=0;entryDy=0;" edge="1" parent="1" source="UyT2j0jTFVru7PbHKCi7-34" target="UyT2j0jTFVru7PbHKCi7-117">
          <mxGeometry width="50" height="50" relative="1" as="geometry">
            <mxPoint x="650" y="1300" as="sourcePoint" />
            <mxPoint x="1510" y="1300" as="targetPoint" />
          </mxGeometry>
        </mxCell>
        <mxCell id="UyT2j0jTFVru7PbHKCi7-119" value="8.16.1 getVoucherByVoucherID()" style="edgeLabel;html=1;align=center;verticalAlign=middle;resizable=0;points=[];" vertex="1" connectable="0" parent="UyT2j0jTFVru7PbHKCi7-109">
          <mxGeometry x="-0.8173" relative="1" as="geometry">
            <mxPoint x="19" y="1" as="offset" />
          </mxGeometry>
        </mxCell>
        <mxCell id="UyT2j0jTFVru7PbHKCi7-118" value="" style="endArrow=none;dashed=1;html=1;rounded=0;entryX=0.5;entryY=1;entryDx=0;entryDy=0;" edge="1" parent="1" target="UyT2j0jTFVru7PbHKCi7-117">
          <mxGeometry width="50" height="50" relative="1" as="geometry">
            <mxPoint x="1520" y="1550" as="sourcePoint" />
            <mxPoint x="1520" y="99" as="targetPoint" />
          </mxGeometry>
        </mxCell>
        <mxCell id="UyT2j0jTFVru7PbHKCi7-117" value="" style="rounded=0;whiteSpace=wrap;html=1;" vertex="1" parent="1">
          <mxGeometry x="1515" y="1300" width="10" height="100" as="geometry" />
        </mxCell>
        <mxCell id="UyT2j0jTFVru7PbHKCi7-120" value="" style="endArrow=classic;html=1;rounded=0;exitX=1.091;exitY=0.205;exitDx=0;exitDy=0;exitPerimeter=0;entryX=-0.227;entryY=-0.01;entryDx=0;entryDy=0;entryPerimeter=0;" edge="1" parent="1" source="UyT2j0jTFVru7PbHKCi7-117" target="UyT2j0jTFVru7PbHKCi7-121">
          <mxGeometry width="50" height="50" relative="1" as="geometry">
            <mxPoint x="1530" y="1320" as="sourcePoint" />
            <mxPoint x="1680" y="1320" as="targetPoint" />
          </mxGeometry>
        </mxCell>
        <mxCell id="UyT2j0jTFVru7PbHKCi7-124" value="8.16.2 executeQuery()" style="edgeLabel;html=1;align=center;verticalAlign=middle;resizable=0;points=[];" vertex="1" connectable="0" parent="UyT2j0jTFVru7PbHKCi7-120">
          <mxGeometry x="-0.4795" y="3" relative="1" as="geometry">
            <mxPoint x="44" y="3" as="offset" />
          </mxGeometry>
        </mxCell>
        <mxCell id="UyT2j0jTFVru7PbHKCi7-122" value="" style="endArrow=none;dashed=1;html=1;rounded=0;entryX=0.5;entryY=1;entryDx=0;entryDy=0;entryPerimeter=0;" edge="1" parent="1" target="UyT2j0jTFVru7PbHKCi7-121">
          <mxGeometry width="50" height="50" relative="1" as="geometry">
            <mxPoint x="1695" y="1560" as="sourcePoint" />
            <mxPoint x="1695" y="1200" as="targetPoint" />
          </mxGeometry>
        </mxCell>
        <mxCell id="UyT2j0jTFVru7PbHKCi7-121" value="" style="rounded=0;whiteSpace=wrap;html=1;" vertex="1" parent="1">
          <mxGeometry x="1690" y="1320" width="10" height="60" as="geometry" />
        </mxCell>
        <mxCell id="UyT2j0jTFVru7PbHKCi7-125" value="" style="endArrow=classic;html=1;rounded=0;dashed=1;exitX=0;exitY=1;exitDx=0;exitDy=0;entryX=0.947;entryY=0.8;entryDx=0;entryDy=0;entryPerimeter=0;" edge="1" parent="1" source="UyT2j0jTFVru7PbHKCi7-121" target="UyT2j0jTFVru7PbHKCi7-117">
          <mxGeometry width="50" height="50" relative="1" as="geometry">
            <mxPoint x="1680" y="1380" as="sourcePoint" />
            <mxPoint x="1530" y="1380" as="targetPoint" />
          </mxGeometry>
        </mxCell>
        <mxCell id="UyT2j0jTFVru7PbHKCi7-126" value="8.16.3 return result" style="edgeLabel;html=1;align=center;verticalAlign=middle;resizable=0;points=[];" vertex="1" connectable="0" parent="UyT2j0jTFVru7PbHKCi7-125">
          <mxGeometry x="-0.2242" y="4" relative="1" as="geometry">
            <mxPoint as="offset" />
          </mxGeometry>
        </mxCell>
        <mxCell id="UyT2j0jTFVru7PbHKCi7-127" value="" style="endArrow=classic;html=1;rounded=0;dashed=1;entryX=1.176;entryY=0.908;entryDx=0;entryDy=0;entryPerimeter=0;" edge="1" parent="1" target="UyT2j0jTFVru7PbHKCi7-34">
          <mxGeometry width="50" height="50" relative="1" as="geometry">
            <mxPoint x="1510" y="1400" as="sourcePoint" />
            <mxPoint x="660" y="1400" as="targetPoint" />
          </mxGeometry>
        </mxCell>
        <mxCell id="UyT2j0jTFVru7PbHKCi7-128" value="8.16.4 return voucher" style="edgeLabel;html=1;align=center;verticalAlign=middle;resizable=0;points=[];" vertex="1" connectable="0" parent="UyT2j0jTFVru7PbHKCi7-127">
          <mxGeometry x="0.7982" y="-3" relative="1" as="geometry">
            <mxPoint as="offset" />
          </mxGeometry>
        </mxCell>
        <mxCell id="UyT2j0jTFVru7PbHKCi7-129" value="" style="endArrow=classic;html=1;rounded=0;exitX=-0.158;exitY=0.963;exitDx=0;exitDy=0;exitPerimeter=0;entryX=0.858;entryY=0.964;entryDx=0;entryDy=0;entryPerimeter=0;dashed=1;" edge="1" parent="1" source="UyT2j0jTFVru7PbHKCi7-31" target="UyT2j0jTFVru7PbHKCi7-50">
          <mxGeometry width="50" height="50" relative="1" as="geometry">
            <mxPoint x="600" y="1480" as="sourcePoint" />
            <mxPoint x="400" y="1480" as="targetPoint" />
          </mxGeometry>
        </mxCell>
        <mxCell id="UyT2j0jTFVru7PbHKCi7-131" value="8.17 send to order detail" style="edgeLabel;html=1;align=center;verticalAlign=middle;resizable=0;points=[];" vertex="1" connectable="0" parent="UyT2j0jTFVru7PbHKCi7-129">
          <mxGeometry x="-0.1391" y="2" relative="1" as="geometry">
            <mxPoint as="offset" />
          </mxGeometry>
        </mxCell>
        <mxCell id="UyT2j0jTFVru7PbHKCi7-130" value="" style="endArrow=classic;html=1;rounded=0;exitX=0.009;exitY=0.991;exitDx=0;exitDy=0;exitPerimeter=0;" edge="1" parent="1" source="UyT2j0jTFVru7PbHKCi7-50">
          <mxGeometry width="50" height="50" relative="1" as="geometry">
            <mxPoint x="370" y="1510" as="sourcePoint" />
            <mxPoint x="180" y="1510" as="targetPoint" />
          </mxGeometry>
        </mxCell>
        <mxCell id="UyT2j0jTFVru7PbHKCi7-132" value="8.18 show order detail" style="edgeLabel;html=1;align=center;verticalAlign=middle;resizable=0;points=[];" vertex="1" connectable="0" parent="UyT2j0jTFVru7PbHKCi7-130">
          <mxGeometry x="-0.2579" y="1" relative="1" as="geometry">
            <mxPoint as="offset" />
          </mxGeometry>
        </mxCell>
        <mxCell id="UyT2j0jTFVru7PbHKCi7-134" value="Alt" style="shape=umlFrame;whiteSpace=wrap;html=1;pointerEvents=0;" vertex="1" parent="1">
          <mxGeometry x="-140" y="370.4" width="1863" height="1179.6" as="geometry" />
        </mxCell>
        <mxCell id="UyT2j0jTFVru7PbHKCi7-137" value="" style="endArrow=none;dashed=1;html=1;rounded=0;exitX=0.001;exitY=0.096;exitDx=0;exitDy=0;exitPerimeter=0;" edge="1" parent="1" source="UyT2j0jTFVru7PbHKCi7-134">
          <mxGeometry width="50" height="50" relative="1" as="geometry">
            <mxPoint x="-180" y="540" as="sourcePoint" />
            <mxPoint x="1720" y="484" as="targetPoint" />
          </mxGeometry>
        </mxCell>
        <mxCell id="UyT2j0jTFVru7PbHKCi7-138" value="[Not exist order]" style="text;html=1;strokeColor=none;fillColor=none;align=center;verticalAlign=middle;whiteSpace=wrap;rounded=0;" vertex="1" parent="1">
          <mxGeometry x="10" y="380" width="120" height="30" as="geometry" />
        </mxCell>
        <mxCell id="UyT2j0jTFVru7PbHKCi7-139" value="[Else]" style="text;html=1;strokeColor=none;fillColor=none;align=center;verticalAlign=middle;whiteSpace=wrap;rounded=0;" vertex="1" parent="1">
          <mxGeometry x="10" y="500" width="120" height="30" as="geometry" />
        </mxCell>
        <mxCell id="UyT2j0jTFVru7PbHKCi7-140" value="Opt" style="shape=umlFrame;whiteSpace=wrap;html=1;pointerEvents=0;" vertex="1" parent="1">
          <mxGeometry x="540" y="1210" width="1170" height="240" as="geometry" />
        </mxCell>
        <mxCell id="UyT2j0jTFVru7PbHKCi7-141" value="[Have voucher]" style="text;html=1;strokeColor=none;fillColor=none;align=center;verticalAlign=middle;whiteSpace=wrap;rounded=0;" vertex="1" parent="1">
          <mxGeometry x="670" y="1240" width="90" height="30" as="geometry" />
        </mxCell>
      </root>
    </mxGraphModel>
  </diagram>
</mxfile>
